<?xml version="1.0" encoding="UTF-8"?>
<svg width="33px" height="32px" viewBox="0 0 33 32" version="1.1" xmlns="http://www.w3.org/2000/svg" xmlns:xlink="http://www.w3.org/1999/xlink">
    <!-- Generator: Sketch 47.1 (45422) - http://www.bohemiancoding.com/sketch -->
    <title>github</title>
    <desc>Created with Sketch.</desc>
    <defs></defs>
    <g id="Symbols" stroke="none" stroke-width="1" fill="none" fill-rule="evenodd">
        <g id="Nav" transform="translate(-223.000000, 0.000000)" fill="#000000">
            <path d="M239.288,0 C230.294,0 223,7.293 223,16.29 C223,23.487 227.667,29.592 234.14,31.746 C234.955,31.896 235.252,31.393 235.252,30.961 C235.252,30.575 235.238,29.55 235.23,28.191 C230.699,29.175 229.743,26.007 229.743,26.007 C229.002,24.125 227.934,23.624 227.934,23.624 C226.455,22.614 228.046,22.634 228.046,22.634 C229.681,22.749 230.541,24.313 230.541,24.313 C231.994,26.802 234.354,26.083 235.282,25.666 C235.43,24.614 235.851,23.896 236.316,23.489 C232.699,23.078 228.896,21.68 228.896,15.438 C228.896,13.66 229.531,12.205 230.573,11.067 C230.405,10.655 229.846,8.998 230.733,6.756 C230.733,6.756 232.1,6.318 235.212,8.426 C236.511,8.064 237.905,7.884 239.29,7.877 C240.674,7.884 242.067,8.064 243.368,8.426 C246.478,6.318 247.843,6.756 247.843,6.756 C248.732,8.998 248.173,10.655 248.006,11.067 C249.05,12.205 249.68,13.66 249.68,15.438 C249.68,21.696 245.871,23.073 242.243,23.476 C242.827,23.979 243.348,24.973 243.348,26.493 C243.348,28.67 243.328,30.427 243.328,30.961 C243.328,31.397 243.622,31.904 244.448,31.745 C250.916,29.586 255.579,23.485 255.579,16.29 C255.579,7.293 248.285,0 239.288,0" id="github"></path>
        </g>
    </g>
</svg>