<?xml version="1.0" encoding="UTF-8"?>
<svg width="32px" height="32px" viewBox="0 0 32 32" version="1.1" xmlns="http://www.w3.org/2000/svg" xmlns:xlink="http://www.w3.org/1999/xlink">
    <!-- Generator: Sketch 47.1 (45422) - http://www.bohemiancoding.com/sketch -->
    <title>linkedin</title>
    <desc>Created with Sketch.</desc>
    <defs></defs>
    <g id="Symbols" stroke="none" stroke-width="1" fill="none" fill-rule="evenodd">
        <g id="Nav" transform="translate(-282.000000, 0.000000)" fill="#000000">
            <path d="M309.268444,27.2675556 L304.522667,27.2675556 L304.522667,19.8408889 C304.522667,18.0702222 304.492444,15.792 302.056889,15.792 C299.586667,15.792 299.209778,17.7217778 299.209778,19.7146667 L299.209778,27.2675556 L294.469333,27.2675556 L294.469333,11.9964444 L299.018667,11.9964444 L299.018667,14.0844444 L299.084444,14.0844444 C299.717333,12.8835556 301.265778,11.6177778 303.574222,11.6177778 C308.380444,11.6177778 309.268444,14.7795556 309.268444,18.8924444 L309.268444,27.2675556 Z M289.118222,9.91022222 C287.593778,9.91022222 286.364444,8.67733333 286.364444,7.15733333 C286.364444,5.63822222 287.593778,4.40533333 289.118222,4.40533333 C290.636444,4.40533333 291.868444,5.63822222 291.868444,7.15733333 C291.868444,8.67733333 290.636444,9.91022222 289.118222,9.91022222 Z M286.741333,27.2675556 L291.492444,27.2675556 L291.492444,11.9964444 L286.741333,11.9964444 L286.741333,27.2675556 Z M311.632,0 L284.36,0 C283.057778,0 282,1.03288889 282,2.30755556 L282,29.6906667 C282,30.9653333 283.057778,32 284.36,32 L311.632,32 C312.936889,32 313.999111,30.9653333 313.999111,29.6906667 L313.999111,2.30755556 C313.999111,1.03288889 312.936889,0 311.632,0 L311.632,0 Z" id="linkedin"></path>
        </g>
    </g>
</svg>